<?xml version="1.0" standalone="no"?><!DOCTYPE svg PUBLIC "-//W3C//DTD SVG 1.1//EN" "http://www.w3.org/Graphics/SVG/1.1/DTD/svg11.dtd">
<svg class="icon" height="512" viewBox="0 0 1024 1024" version="1.1" 
    xmlns="http://www.w3.org/2000/svg">
    <path d="M511.772 512.818m-447.56 0a447.56 447.56 0 1 0 895.12 0 447.56 447.56 0 1 0-895.12 0Z" fill="#E0E0D1" />
    <path d="M511.772 289.038c138.817 0 251.752 112.936 251.752 251.753S650.589 792.543 511.772 792.543 260.02 679.607 260.02 540.79s112.935-251.752 251.752-251.752z m0-55.945c-169.937 0-307.698 137.761-307.698 307.698s137.761 307.698 307.698 307.698S819.47 710.727 819.47 540.79 681.709 233.093 511.772 233.093z" fill="#231F20" />
    <path d="M511.772 261.065c138.817 0 251.752 112.936 251.752 251.752S650.589 764.57 511.772 764.57 260.02 651.634 260.02 512.818s112.935-251.753 251.752-251.753m0-55.945c-169.937 0-307.698 137.761-307.698 307.697s137.761 307.698 307.698 307.698S819.47 682.754 819.47 512.818 681.709 205.12 511.772 205.12z" fill="#C75C5C" />
    <path d="M623.662 680.653a27.882 27.882 0 0 1-19.777-8.195L483.8 552.379V428.9c0-15.448 12.525-27.973 27.973-27.973 15.448 0 27.973 12.525 27.973 27.973v100.301L643.44 632.903c10.927 10.92 10.927 28.635 0 39.555a27.886 27.886 0 0 1-19.778 8.195z" fill="#231F20" />
    <path d="M623.662 652.68a27.882 27.882 0 0 1-19.777-8.195L483.8 524.407V400.928c0-15.448 12.525-27.973 27.973-27.973 15.448 0 27.973 12.525 27.973 27.973v100.301L643.44 604.93c10.927 10.92 10.927 28.635 0 39.555a27.886 27.886 0 0 1-19.778 8.195z" fill="#4F5D73" />
</svg>